<?xml version="1.0" encoding="UTF-8"?>
<!DOCTYPE svg PUBLIC "-//W3C//DTD SVG 1.1//EN" "http://www.w3.org/Graphics/SVG/1.1/DTD/svg11.dtd">
<svg xmlns="http://www.w3.org/2000/svg" xmlns:xlink="http://www.w3.org/1999/xlink" width="1497px" height="933px" version="1.1" content="%3Cmxfile%20userAgent%3D%22Mozilla%2F5.0%20(Windows%20NT%206.3%3B%20WOW64)%20AppleWebKit%2F537.36%20(KHTML%2C%20like%20Gecko)%20Chrome%2F47.0.2526.73%20Safari%2F537.36%22%20type%3D%22google%22%3E%3Cdiagram%3E1Z3Bc%2BI2FMb%2FGo7tIAvbcN1tur10pjN7aHv0gkM8JXHGIZukf%2F2K%2BH0GS%2BDI1NJ75QIIbOxPP0kf7z3DTH%2B%2Bf%2F3SFI93v9ebcjdL5pvXmf5lliRKJXNzd2h5a1sW2aJt2DbVht50bPha%2FVtSI223fa425VPvjfu63u2rx37jun54KNf7XlvRNPVL%2F2239a7%2FqY%2FFFp94bPi6LnZu65%2FVZn%2FXti6T7Nj%2BW1lt7%2FDJKlu1r3wr1v9sm%2Fr5gT5vlujb91v78n2Bfb2fqL4xIjZ1bXZzeHT%2F%2BrncHYSERq0av154tTvIpnygAxneIL1dp3m2THWyus2KfP6TXra7%2BF7snunMH6rdvm182r9BDrMbo3xJby6bfYmedg%2FhvYk%2B%2F0tZ35f75s28hTZIlnm7CYGhqcNfTlSmprsTgfG2gvp12%2B34eLrmAZ2x79lTn52cPbg9Off3ziwP%2B1Az%2FSmABArQc2iwoJ2eaOD2%2FsaMDXpa7r7VLzfHhk%2FvDeaFgySVGUCdRoetego91c%2FNmpoukrgvmm1JJ3yxwzy0bspdsa%2B%2B949gWuVopyfKoSND0mOmmj49K056CBZ2egiMQXrQYTLo0e7ck4anZ5HSOBNBD3mC%2Fwc91GEy6CFUTpSjNSUkPGl%2F5klyTnboWLjZwaQyzA51lwx2iJTTdYsGYtB1K5dEj%2Bt7BdNDHSaDnjOe2dVucno01goJ9KRCPDOWpGF6JHnm1PXMURaunDpIBD1CPLMXPegwGfSc8cw406Df1%2Ftzj8b4Z6FHiGfGtDJMjyTPnLqeOYngexZzSfRIcc1e9EhyzfjefEoPnURIejLL9%2FDS43o%2FFnqwKA3TQx0mgp7MdYwJHV9Q32OtXAvOaHvmej8eenwizegwGfS4jlFH8D25tXLx0uN6P8H00LHJoMf1PSbHFzHFl7Jy4zoejhxfxpnjy9yIH8vYAYnDY6dLsXvHhhBCAG%2BYvKcV0TWAHOm%2BjDNhgyIHdpBIk2GQ%2FA0gtLYSHBmS45OKiNgTc%2BaPFaRciBf0Agkddv2MFAgk1xbGTwLmnKHUXIgpxFQzjJG%2FKSSpV5bUMC7TanjGIDEkdHg5EmKQoMEwR%2BMNkhUGCATSmQgZQ26HFyQhBskPpNEGabHqe4gwIKG3mNM8S85Q61KIQcJkMwgSVBljkCyt50FEdA0SR8aHFyQhFskPpNEWyV7aAoHkJl05kj%2B8ILlhRB6QfLw2OmyE1qpvIwKBdMZsM%2BSBVpwRWURGuUGCJsMgjTbbmb20QdhpRXTNNkdKiBckIWbbD6TRZjuzl7YgICEKGC07pMytH66nhYUDodWZesQoQX1LA6U5RRBSkAgUB8cRemyM2KgX6WxUCBFdnx0jPbRCZBmVrYoTJCG1iWBkGCT%2F2kQsfsgW2LVY04p4pkwxQnpImYubBZEkpE7RjyT%2FOsVLU5JCanxaFV2nHSEgu0T6HSBBHxaQhFzog9lmGCT%2FC33gEfMLJVrTishzzY8pfeiHm1lJUggIsKPkU0WDLhuzAMwttXHV4sQyBnCb5hSbt79M2%2FznFE%2F%2FPjwNKbGajx6uSuNkfTSm3fxRV2bvx30stHUhJY4W%2B2iPmjazuqo7pmt7j%2BcSHPMTGX04dc46FUgxuj6XUXR9NkZuXCALuWFBJ9aR55Ic1QVdZdAkxez60TTe7dorSyiaXLsbI0ujFnAGMmzKGbMWIcWgtBWJ4B1TiL1wj6kOyg8G1Xi7piFm2EGFQGXkRINaWN8imXESEiL1xAmdNkZve%2FgGwsn1j6HTDdgGX5E5656NsWJKOFgqpJxVcib8JWQ4AccPhtPoagITurD0DlIp110cEjvrgMg36ts5C1OUElJQ0HHyAU2jSwpy66eT8iAZLKXOFPDGcI4JEpAyaBJSVeBL0%2FirnOy5KQtS6tT9BHDk7AMWNowVzgqVbtXlh8mn%2FLLrsv9QpBIkkWUCNkwZCFQbyqBJSC1vN%2Bl8QNPoal4zXqyLFIPUPCkEGSXnIHxFviJyoK31dkjkS0kI%2FP6mPTBiJCHw1TR6EsKic8l5Ub%2FCb9Gzzwb43A9AvaZKwpp9g1zYr2BLomch8JvnMnASUinhi9P45Ku9uITC6UwAPkoaAviI8CpYY6LHjS3%2FzzuotBTHBgKHBxU6bYzeVijomkFlnh7%2FA6V1CMd%2FldE3PwA%3D%3C%2Fdiagram%3E%3C%2Fmxfile%3E" resource="https://www.draw.io/#G0Bx8c4jPOCMcVczJFd3c2QjRvQ0U" style="background-color: rgb(255, 255, 255);"><defs/><g transform="translate(0.5,0.5)"><ellipse cx="272" cy="16" rx="40" ry="15" fill="#ffffff" stroke="#000000" pointer-events="none"/><g fill="#000000" font-family="Helvetica" text-anchor="middle" font-size="12px"><text x="272" y="20">nilt</text></g><rect x="232" y="81" width="80" height="30" rx="4.5" ry="4.5" fill="#ffffff" stroke="#000000" pointer-events="none"/><g fill="#000000" font-family="Helvetica" text-anchor="middle" font-size="12px"><text x="272" y="100">20</text></g><path d="M 272 31 L 272 46 Q 272 56 272 65.32 L 272 74.63" fill="none" stroke="#000000" stroke-miterlimit="10" pointer-events="none"/><path d="M 272 79.88 L 268.5 72.88 L 272 74.63 L 275.5 72.88 Z" fill="#000000" stroke="#000000" stroke-miterlimit="10" pointer-events="none"/><rect x="61" y="161" width="80" height="30" rx="4.5" ry="4.5" fill="#ffffff" stroke="#000000" pointer-events="none"/><g fill="#000000" font-family="Helvetica" text-anchor="middle" font-size="12px"><text x="101" y="180">10</text></g><path d="M 272 111 L 272 126 Q 272 136 262 136 L 111 136 Q 101 136 101 145.32 L 101 154.63" fill="none" stroke="#000000" stroke-miterlimit="10" pointer-events="none"/><path d="M 101 159.88 L 97.5 152.88 L 101 154.63 L 104.5 152.88 Z" fill="#000000" stroke="#000000" stroke-miterlimit="10" pointer-events="none"/><rect x="403" y="161" width="80" height="30" rx="4.5" ry="4.5" fill="#ffffff" stroke="#000000" pointer-events="none"/><g fill="#000000" font-family="Helvetica" text-anchor="middle" font-size="12px"><text x="443" y="180">25</text></g><path d="M 272 111 L 272 126 Q 272 136 282 136 L 433 136 Q 443 136 443 145.32 L 443 154.63" fill="none" stroke="#000000" stroke-miterlimit="10" pointer-events="none"/><path d="M 443 159.88 L 439.5 152.88 L 443 154.63 L 446.5 152.88 Z" fill="#000000" stroke="#000000" stroke-miterlimit="10" pointer-events="none"/><rect x="1" y="241" width="80" height="30" rx="4.5" ry="4.5" fill="#ffffff" stroke="#000000" pointer-events="none"/><g fill="#000000" font-family="Helvetica" text-anchor="middle" font-size="12px"><text x="41" y="260">7</text></g><path d="M 101 191 L 101 206 Q 101 216 91 216 L 51 216 Q 41 216 41 225.32 L 41 234.63" fill="none" stroke="#000000" stroke-miterlimit="10" pointer-events="none"/><path d="M 41 239.88 L 37.5 232.88 L 41 234.63 L 44.5 232.88 Z" fill="#000000" stroke="#000000" stroke-miterlimit="10" pointer-events="none"/><rect x="121" y="241" width="80" height="30" rx="4.5" ry="4.5" fill="#ffffff" stroke="#000000" pointer-events="none"/><g fill="#000000" font-family="Helvetica" text-anchor="middle" font-size="12px"><text x="161" y="260">14</text></g><path d="M 101 191 L 101 206 Q 101 216 111 216 L 151 216 Q 161 216 161 225.32 L 161 234.63" fill="none" stroke="#000000" stroke-miterlimit="10" pointer-events="none"/><path d="M 161 239.88 L 157.5 232.88 L 161 234.63 L 164.5 232.88 Z" fill="#000000" stroke="#000000" stroke-miterlimit="10" pointer-events="none"/><rect x="289" y="241" width="80" height="30" rx="4.5" ry="4.5" fill="#ffffff" stroke="#000000" pointer-events="none"/><g fill="#000000" font-family="Helvetica" text-anchor="middle" font-size="12px"><text x="329" y="260">22</text></g><path d="M 443 191 L 443 206 Q 443 216 433 216 L 339 216 Q 329 216 329 225.32 L 329 234.63" fill="none" stroke="#000000" stroke-miterlimit="10" pointer-events="none"/><path d="M 329 239.88 L 325.5 232.88 L 329 234.63 L 332.5 232.88 Z" fill="#000000" stroke="#000000" stroke-miterlimit="10" pointer-events="none"/><rect x="517" y="241" width="80" height="30" rx="4.5" ry="4.5" fill="#ffffff" stroke="#000000" pointer-events="none"/><g fill="#000000" font-family="Helvetica" text-anchor="middle" font-size="12px"><text x="557" y="260">27</text></g><path d="M 443 191 L 443 206 Q 443 216 453 216 L 547 216 Q 557 216 557 225.32 L 557 234.63" fill="none" stroke="#000000" stroke-miterlimit="10" pointer-events="none"/><path d="M 557 239.88 L 553.5 232.88 L 557 234.63 L 560.5 232.88 Z" fill="#000000" stroke="#000000" stroke-miterlimit="10" pointer-events="none"/><rect x="229" y="321" width="80" height="30" rx="4.5" ry="4.5" fill="#ffffff" stroke="#000000" pointer-events="none"/><g fill="#000000" font-family="Helvetica" text-anchor="middle" font-size="12px"><text x="269" y="340">21</text></g><path d="M 329 271 L 329 286 Q 329 296 319 296 L 279 296 Q 269 296 269 305.32 L 269 314.63" fill="none" stroke="#000000" stroke-miterlimit="10" pointer-events="none"/><path d="M 269 319.88 L 265.5 312.88 L 269 314.63 L 272.5 312.88 Z" fill="#000000" stroke="#000000" stroke-miterlimit="10" pointer-events="none"/><rect x="349" y="321" width="80" height="30" rx="4.5" ry="4.5" fill="#ffffff" stroke="#000000" pointer-events="none"/><g fill="#000000" font-family="Helvetica" text-anchor="middle" font-size="12px"><text x="389" y="340">24</text></g><path d="M 329 271 L 329 286 Q 329 296 339 296 L 379 296 Q 389 296 389 305.32 L 389 314.63" fill="none" stroke="#000000" stroke-miterlimit="10" pointer-events="none"/><path d="M 389 319.88 L 385.5 312.88 L 389 314.63 L 392.5 312.88 Z" fill="#000000" stroke="#000000" stroke-miterlimit="10" pointer-events="none"/><rect x="589" y="321" width="80" height="30" rx="4.5" ry="4.5" fill="#ffffff" stroke="#000000" pointer-events="none"/><g fill="#000000" font-family="Helvetica" text-anchor="middle" font-size="12px"><text x="629" y="340">29</text></g><path d="M 557 271 L 557 286 Q 557 296 567 296 L 619 296 Q 629 296 629 305.32 L 629 314.63" fill="none" stroke="#000000" stroke-miterlimit="10" pointer-events="none"/><path d="M 629 319.88 L 625.5 312.88 L 629 314.63 L 632.5 312.88 Z" fill="#000000" stroke="#000000" stroke-miterlimit="10" pointer-events="none"/><rect x="529" y="401" width="80" height="30" rx="4.5" ry="4.5" fill="#ffffff" stroke="#000000" pointer-events="none"/><g fill="#000000" font-family="Helvetica" text-anchor="middle" font-size="12px"><text x="569" y="420">28</text></g><path d="M 629 351 L 629 366 Q 629 376 619 376 L 579 376 Q 569 376 569 385.32 L 569 394.63" fill="none" stroke="#000000" stroke-miterlimit="10" pointer-events="none"/><path d="M 569 399.88 L 565.5 392.88 L 569 394.63 L 572.5 392.88 Z" fill="#000000" stroke="#000000" stroke-miterlimit="10" pointer-events="none"/><rect x="649" y="401" width="80" height="30" rx="4.5" ry="4.5" fill="#ffffff" stroke="#000000" pointer-events="none"/><g fill="#000000" font-family="Helvetica" text-anchor="middle" font-size="12px"><text x="689" y="420">31</text></g><path d="M 629 351 L 629 366 Q 629 376 639 376 L 679 376 Q 689 376 689 385.32 L 689 394.63" fill="none" stroke="#000000" stroke-miterlimit="10" pointer-events="none"/><path d="M 689 399.88 L 685.5 392.88 L 689 394.63 L 692.5 392.88 Z" fill="#000000" stroke="#000000" stroke-miterlimit="10" pointer-events="none"/><ellipse cx="272" cy="516" rx="40" ry="15" fill="#ffffff" stroke="#000000" pointer-events="none"/><g fill="#000000" font-family="Helvetica" text-anchor="middle" font-size="12px"><text x="272" y="520">nil</text></g><rect x="232" y="581" width="80" height="30" rx="4.5" ry="4.5" fill="#ffffff" stroke="#000000" pointer-events="none"/><g fill="#000000" font-family="Helvetica" text-anchor="middle" font-size="12px"><text x="272" y="600">20</text></g><path d="M 272 531 L 272 546 Q 272 556 272 565.32 L 272 574.63" fill="none" stroke="#000000" stroke-miterlimit="10" pointer-events="none"/><path d="M 272 579.88 L 268.5 572.88 L 272 574.63 L 275.5 572.88 Z" fill="#000000" stroke="#000000" stroke-miterlimit="10" pointer-events="none"/><rect x="61" y="661" width="80" height="30" rx="4.5" ry="4.5" fill="#ffffff" stroke="#000000" pointer-events="none"/><g fill="#000000" font-family="Helvetica" text-anchor="middle" font-size="12px"><text x="101" y="680">10</text></g><path d="M 272 611 L 272 626 Q 272 636 262 636 L 111 636 Q 101 636 101 645.32 L 101 654.63" fill="none" stroke="#000000" stroke-miterlimit="10" pointer-events="none"/><path d="M 101 659.88 L 97.5 652.88 L 101 654.63 L 104.5 652.88 Z" fill="#000000" stroke="#000000" stroke-miterlimit="10" pointer-events="none"/><rect x="403" y="661" width="80" height="30" rx="4.5" ry="4.5" fill="#ffffff" stroke="#000000" pointer-events="none"/><g fill="#000000" font-family="Helvetica" text-anchor="middle" font-size="12px"><text x="443" y="680">25</text></g><path d="M 272 611 L 272 626 Q 272 636 282 636 L 433 636 Q 443 636 443 645.32 L 443 654.63" fill="none" stroke="#000000" stroke-miterlimit="10" pointer-events="none"/><path d="M 443 659.88 L 439.5 652.88 L 443 654.63 L 446.5 652.88 Z" fill="#000000" stroke="#000000" stroke-miterlimit="10" pointer-events="none"/><rect x="1" y="741" width="80" height="30" rx="4.5" ry="4.5" fill="#ffffff" stroke="#000000" pointer-events="none"/><g fill="#000000" font-family="Helvetica" text-anchor="middle" font-size="12px"><text x="41" y="760">7</text></g><path d="M 101 691 L 101 706 Q 101 716 91 716 L 51 716 Q 41 716 41 725.32 L 41 734.63" fill="none" stroke="#000000" stroke-miterlimit="10" pointer-events="none"/><path d="M 41 739.88 L 37.5 732.88 L 41 734.63 L 44.5 732.88 Z" fill="#000000" stroke="#000000" stroke-miterlimit="10" pointer-events="none"/><rect x="289" y="741" width="80" height="30" rx="4.5" ry="4.5" fill="#ffffff" stroke="#000000" pointer-events="none"/><g fill="#000000" font-family="Helvetica" text-anchor="middle" font-size="12px"><text x="329" y="760">22</text></g><path d="M 443 691 L 443 706 Q 443 716 433 716 L 339 716 Q 329 716 329 725.32 L 329 734.63" fill="none" stroke="#000000" stroke-miterlimit="10" pointer-events="none"/><path d="M 329 739.88 L 325.5 732.88 L 329 734.63 L 332.5 732.88 Z" fill="#000000" stroke="#000000" stroke-miterlimit="10" pointer-events="none"/><rect x="517" y="741" width="80" height="30" rx="4.5" ry="4.5" fill="#ffffff" stroke="#000000" pointer-events="none"/><g fill="#000000" font-family="Helvetica" text-anchor="middle" font-size="12px"><text x="557" y="760">27</text></g><path d="M 443 691 L 443 706 Q 443 716 453 716 L 547 716 Q 557 716 557 725.32 L 557 734.63" fill="none" stroke="#000000" stroke-miterlimit="10" pointer-events="none"/><path d="M 557 739.88 L 553.5 732.88 L 557 734.63 L 560.5 732.88 Z" fill="#000000" stroke="#000000" stroke-miterlimit="10" pointer-events="none"/><rect x="229" y="821" width="80" height="30" rx="4.5" ry="4.5" fill="#ffffff" stroke="#000000" pointer-events="none"/><g fill="#000000" font-family="Helvetica" text-anchor="middle" font-size="12px"><text x="269" y="840">21</text></g><path d="M 329 771 L 329 786 Q 329 796 319 796 L 279 796 Q 269 796 269 805.32 L 269 814.63" fill="none" stroke="#000000" stroke-miterlimit="10" pointer-events="none"/><path d="M 269 819.88 L 265.5 812.88 L 269 814.63 L 272.5 812.88 Z" fill="#000000" stroke="#000000" stroke-miterlimit="10" pointer-events="none"/><rect x="349" y="821" width="80" height="30" rx="4.5" ry="4.5" fill="#ffffff" stroke="#000000" pointer-events="none"/><g fill="#000000" font-family="Helvetica" text-anchor="middle" font-size="12px"><text x="389" y="840">24</text></g><path d="M 329 771 L 329 786 Q 329 796 339 796 L 379 796 Q 389 796 389 805.32 L 389 814.63" fill="none" stroke="#000000" stroke-miterlimit="10" pointer-events="none"/><path d="M 389 819.88 L 385.5 812.88 L 389 814.63 L 392.5 812.88 Z" fill="#000000" stroke="#000000" stroke-miterlimit="10" pointer-events="none"/><rect x="589" y="821" width="80" height="30" rx="4.5" ry="4.5" fill="#ffffff" stroke="#000000" pointer-events="none"/><g fill="#000000" font-family="Helvetica" text-anchor="middle" font-size="12px"><text x="629" y="840">29</text></g><path d="M 557 771 L 557 786 Q 557 796 567 796 L 619 796 Q 629 796 629 805.32 L 629 814.63" fill="none" stroke="#000000" stroke-miterlimit="10" pointer-events="none"/><path d="M 629 819.88 L 625.5 812.88 L 629 814.63 L 632.5 812.88 Z" fill="#000000" stroke="#000000" stroke-miterlimit="10" pointer-events="none"/><rect x="529" y="901" width="80" height="30" rx="4.5" ry="4.5" fill="#ffffff" stroke="#000000" pointer-events="none"/><g fill="#000000" font-family="Helvetica" text-anchor="middle" font-size="12px"><text x="569" y="920">28</text></g><path d="M 629 851 L 629 866 Q 629 876 619 876 L 579 876 Q 569 876 569 885.32 L 569 894.63" fill="none" stroke="#000000" stroke-miterlimit="10" pointer-events="none"/><path d="M 569 899.88 L 565.5 892.88 L 569 894.63 L 572.5 892.88 Z" fill="#000000" stroke="#000000" stroke-miterlimit="10" pointer-events="none"/><rect x="649" y="901" width="80" height="30" rx="4.5" ry="4.5" fill="#ffffff" stroke="#000000" pointer-events="none"/><g fill="#000000" font-family="Helvetica" text-anchor="middle" font-size="12px"><text x="689" y="920">31</text></g><path d="M 629 851 L 629 866 Q 629 876 639 876 L 679 876 Q 689 876 689 885.32 L 689 894.63" fill="none" stroke="#000000" stroke-miterlimit="10" pointer-events="none"/><path d="M 689 899.88 L 685.5 892.88 L 689 894.63 L 692.5 892.88 Z" fill="#000000" stroke="#000000" stroke-miterlimit="10" pointer-events="none"/><ellipse cx="1096" cy="41" rx="40" ry="15" fill="#ffffff" stroke="#000000" pointer-events="none"/><g fill="#000000" font-family="Helvetica" text-anchor="middle" font-size="12px"><text x="1096" y="45">nil</text></g><rect x="1056" y="106" width="80" height="30" rx="4.5" ry="4.5" fill="#ffffff" stroke="#000000" pointer-events="none"/><g fill="#000000" font-family="Helvetica" text-anchor="middle" font-size="12px"><text x="1096" y="125">20</text></g><path d="M 1096 56 L 1096 71 Q 1096 81 1096 90.32 L 1096 99.63" fill="none" stroke="#000000" stroke-miterlimit="10" pointer-events="none"/><path d="M 1096 104.88 L 1092.5 97.88 L 1096 99.63 L 1099.5 97.88 Z" fill="#000000" stroke="#000000" stroke-miterlimit="10" pointer-events="none"/><rect x="885" y="186" width="80" height="30" rx="4.5" ry="4.5" fill="#ffffff" stroke="#000000" pointer-events="none"/><g fill="#000000" font-family="Helvetica" text-anchor="middle" font-size="12px"><text x="925" y="205">10</text></g><path d="M 1096 136 L 1096 151 Q 1096 161 1086 161 L 935 161 Q 925 161 925 170.32 L 925 179.63" fill="none" stroke="#000000" stroke-miterlimit="10" pointer-events="none"/><path d="M 925 184.88 L 921.5 177.88 L 925 179.63 L 928.5 177.88 Z" fill="#000000" stroke="#000000" stroke-miterlimit="10" pointer-events="none"/><rect x="1227" y="186" width="80" height="30" rx="4.5" ry="4.5" fill="#ffffff" stroke="#000000" pointer-events="none"/><g fill="#000000" font-family="Helvetica" text-anchor="middle" font-size="12px"><text x="1267" y="205">25</text></g><path d="M 1096 136 L 1096 151 Q 1096 161 1106 161 L 1257 161 Q 1267 161 1267 170.32 L 1267 179.63" fill="none" stroke="#000000" stroke-miterlimit="10" pointer-events="none"/><path d="M 1267 184.88 L 1263.5 177.88 L 1267 179.63 L 1270.5 177.88 Z" fill="#000000" stroke="#000000" stroke-miterlimit="10" pointer-events="none"/><rect x="805" y="266" width="80" height="30" rx="4.5" ry="4.5" fill="#ffffff" stroke="#000000" pointer-events="none"/><g fill="#000000" font-family="Helvetica" text-anchor="middle" font-size="12px"><text x="845" y="285">7</text></g><path d="M 925 216 L 925 231 Q 925 241 915 241 L 855 241 Q 845 241 845 250.32 L 845 259.63" fill="none" stroke="#000000" stroke-miterlimit="10" pointer-events="none"/><path d="M 845 264.88 L 841.5 257.88 L 845 259.63 L 848.5 257.88 Z" fill="#000000" stroke="#000000" stroke-miterlimit="10" pointer-events="none"/><rect x="1113" y="266" width="80" height="30" rx="4.5" ry="4.5" fill="#ffffff" stroke="#000000" pointer-events="none"/><g fill="#000000" font-family="Helvetica" text-anchor="middle" font-size="12px"><text x="1153" y="285">22</text></g><path d="M 1267 216 L 1267 231 Q 1267 241 1257 241 L 1163 241 Q 1153 241 1153 250.32 L 1153 259.63" fill="none" stroke="#000000" stroke-miterlimit="10" pointer-events="none"/><path d="M 1153 264.88 L 1149.5 257.88 L 1153 259.63 L 1156.5 257.88 Z" fill="#000000" stroke="#000000" stroke-miterlimit="10" pointer-events="none"/><path d="M 1267 216 L 1267 231 Q 1267 241 1277 241 L 1375 241 Q 1385 241 1385 250.32 L 1385 259.63" fill="none" stroke="#000000" stroke-miterlimit="10" pointer-events="none"/><path d="M 1385 264.88 L 1381.5 257.88 L 1385 259.63 L 1388.5 257.88 Z" fill="#000000" stroke="#000000" stroke-miterlimit="10" pointer-events="none"/><rect x="1053" y="346" width="80" height="30" rx="4.5" ry="4.5" fill="#ffffff" stroke="#000000" pointer-events="none"/><g fill="#000000" font-family="Helvetica" text-anchor="middle" font-size="12px"><text x="1093" y="365">21</text></g><path d="M 1153 296 L 1153 311 Q 1153 321 1143 321 L 1103 321 Q 1093 321 1093 330.32 L 1093 339.63" fill="none" stroke="#000000" stroke-miterlimit="10" pointer-events="none"/><path d="M 1093 344.88 L 1089.5 337.88 L 1093 339.63 L 1096.5 337.88 Z" fill="#000000" stroke="#000000" stroke-miterlimit="10" pointer-events="none"/><rect x="1173" y="346" width="80" height="30" rx="4.5" ry="4.5" fill="#ffffff" stroke="#000000" pointer-events="none"/><g fill="#000000" font-family="Helvetica" text-anchor="middle" font-size="12px"><text x="1213" y="365">24</text></g><path d="M 1153 296 L 1153 311 Q 1153 321 1163 321 L 1203 321 Q 1213 321 1213 330.32 L 1213 339.63" fill="none" stroke="#000000" stroke-miterlimit="10" pointer-events="none"/><path d="M 1213 344.88 L 1209.5 337.88 L 1213 339.63 L 1216.5 337.88 Z" fill="#000000" stroke="#000000" stroke-miterlimit="10" pointer-events="none"/><rect x="1345" y="266" width="80" height="30" rx="4.5" ry="4.5" fill="#ffffff" stroke="#000000" pointer-events="none"/><g fill="#000000" font-family="Helvetica" text-anchor="middle" font-size="12px"><text x="1385" y="285">29</text></g><rect x="1285" y="346" width="80" height="30" rx="4.5" ry="4.5" fill="#ffffff" stroke="#000000" pointer-events="none"/><g fill="#000000" font-family="Helvetica" text-anchor="middle" font-size="12px"><text x="1325" y="365">28</text></g><path d="M 1385 296 L 1385 311 Q 1385 321 1375 321 L 1335 321 Q 1325 321 1325 330.32 L 1325 339.63" fill="none" stroke="#000000" stroke-miterlimit="10" pointer-events="none"/><path d="M 1325 344.88 L 1321.5 337.88 L 1325 339.63 L 1328.5 337.88 Z" fill="#000000" stroke="#000000" stroke-miterlimit="10" pointer-events="none"/><rect x="1405" y="346" width="80" height="30" rx="4.5" ry="4.5" fill="#ffffff" stroke="#000000" pointer-events="none"/><g fill="#000000" font-family="Helvetica" text-anchor="middle" font-size="12px"><text x="1445" y="365">31</text></g><path d="M 1385 296 L 1385 311 Q 1385 321 1395 321 L 1435 321 Q 1445 321 1445 330.32 L 1445 339.63" fill="none" stroke="#000000" stroke-miterlimit="10" pointer-events="none"/><path d="M 1445 344.88 L 1441.5 337.88 L 1445 339.63 L 1448.5 337.88 Z" fill="#000000" stroke="#000000" stroke-miterlimit="10" pointer-events="none"/><ellipse cx="1106" cy="476" rx="40" ry="15" fill="#ffffff" stroke="#000000" pointer-events="none"/><g fill="#000000" font-family="Helvetica" text-anchor="middle" font-size="12px"><text x="1106" y="480">nil</text></g><rect x="1066" y="541" width="80" height="30" rx="4.5" ry="4.5" fill="#ffffff" stroke="#000000" pointer-events="none"/><g fill="#000000" font-family="Helvetica" text-anchor="middle" font-size="12px"><text x="1106" y="560">20</text></g><path d="M 1106 491 L 1106 506 Q 1106 516 1106 525.32 L 1106 534.63" fill="none" stroke="#000000" stroke-miterlimit="10" pointer-events="none"/><path d="M 1106 539.88 L 1102.5 532.88 L 1106 534.63 L 1109.5 532.88 Z" fill="#000000" stroke="#000000" stroke-miterlimit="10" pointer-events="none"/><rect x="895" y="621" width="80" height="30" rx="4.5" ry="4.5" fill="#ffffff" stroke="#000000" pointer-events="none"/><g fill="#000000" font-family="Helvetica" text-anchor="middle" font-size="12px"><text x="935" y="640">10</text></g><path d="M 1106 571 L 1106 586 Q 1106 596 1096 596 L 945 596 Q 935 596 935 605.32 L 935 614.63" fill="none" stroke="#000000" stroke-miterlimit="10" pointer-events="none"/><path d="M 935 619.88 L 931.5 612.88 L 935 614.63 L 938.5 612.88 Z" fill="#000000" stroke="#000000" stroke-miterlimit="10" pointer-events="none"/><rect x="1237" y="621" width="80" height="30" rx="4.5" ry="4.5" fill="#ffffff" stroke="#000000" pointer-events="none"/><g fill="#000000" font-family="Helvetica" text-anchor="middle" font-size="12px"><text x="1277" y="640">28</text></g><path d="M 1106 571 L 1106 586 Q 1106 596 1116 596 L 1267 596 Q 1277 596 1277 605.32 L 1277 614.63" fill="none" stroke="#000000" stroke-miterlimit="10" pointer-events="none"/><path d="M 1277 619.88 L 1273.5 612.88 L 1277 614.63 L 1280.5 612.88 Z" fill="#000000" stroke="#000000" stroke-miterlimit="10" pointer-events="none"/><rect x="815" y="701" width="80" height="30" rx="4.5" ry="4.5" fill="#ffffff" stroke="#000000" pointer-events="none"/><g fill="#000000" font-family="Helvetica" text-anchor="middle" font-size="12px"><text x="855" y="720">7</text></g><path d="M 935 651 L 935 666 Q 935 676 925 676 L 865 676 Q 855 676 855 685.32 L 855 694.63" fill="none" stroke="#000000" stroke-miterlimit="10" pointer-events="none"/><path d="M 855 699.88 L 851.5 692.88 L 855 694.63 L 858.5 692.88 Z" fill="#000000" stroke="#000000" stroke-miterlimit="10" pointer-events="none"/><rect x="1123" y="701" width="80" height="30" rx="4.5" ry="4.5" fill="#ffffff" stroke="#000000" pointer-events="none"/><g fill="#000000" font-family="Helvetica" text-anchor="middle" font-size="12px"><text x="1163" y="720">22</text></g><path d="M 1277 651 L 1277 666 Q 1277 676 1267 676 L 1173 676 Q 1163 676 1163 685.32 L 1163 694.63" fill="none" stroke="#000000" stroke-miterlimit="10" pointer-events="none"/><path d="M 1163 699.88 L 1159.5 692.88 L 1163 694.63 L 1166.5 692.88 Z" fill="#000000" stroke="#000000" stroke-miterlimit="10" pointer-events="none"/><path d="M 1277 651 L 1277 666 Q 1277 676 1287 676 L 1385 676 Q 1395 676 1395 685.32 L 1395 694.63" fill="none" stroke="#000000" stroke-miterlimit="10" pointer-events="none"/><path d="M 1395 699.88 L 1391.5 692.88 L 1395 694.63 L 1398.5 692.88 Z" fill="#000000" stroke="#000000" stroke-miterlimit="10" pointer-events="none"/><rect x="1063" y="781" width="80" height="30" rx="4.5" ry="4.5" fill="#ffffff" stroke="#000000" pointer-events="none"/><g fill="#000000" font-family="Helvetica" text-anchor="middle" font-size="12px"><text x="1103" y="800">21</text></g><path d="M 1163 731 L 1163 746 Q 1163 756 1153 756 L 1113 756 Q 1103 756 1103 765.32 L 1103 774.63" fill="none" stroke="#000000" stroke-miterlimit="10" pointer-events="none"/><path d="M 1103 779.88 L 1099.5 772.88 L 1103 774.63 L 1106.5 772.88 Z" fill="#000000" stroke="#000000" stroke-miterlimit="10" pointer-events="none"/><rect x="1183" y="781" width="80" height="30" rx="4.5" ry="4.5" fill="#ffffff" stroke="#000000" pointer-events="none"/><g fill="#000000" font-family="Helvetica" text-anchor="middle" font-size="12px"><text x="1223" y="800">24</text></g><path d="M 1163 731 L 1163 746 Q 1163 756 1173 756 L 1213 756 Q 1223 756 1223 765.32 L 1223 774.63" fill="none" stroke="#000000" stroke-miterlimit="10" pointer-events="none"/><path d="M 1223 779.88 L 1219.5 772.88 L 1223 774.63 L 1226.5 772.88 Z" fill="#000000" stroke="#000000" stroke-miterlimit="10" pointer-events="none"/><rect x="1355" y="701" width="80" height="30" rx="4.5" ry="4.5" fill="#ffffff" stroke="#000000" pointer-events="none"/><g fill="#000000" font-family="Helvetica" text-anchor="middle" font-size="12px"><text x="1395" y="720">29</text></g><rect x="1415" y="781" width="80" height="30" rx="4.5" ry="4.5" fill="#ffffff" stroke="#000000" pointer-events="none"/><g fill="#000000" font-family="Helvetica" text-anchor="middle" font-size="12px"><text x="1455" y="800">31</text></g><path d="M 1395 731 L 1395 746 Q 1395 756 1405 756 L 1445 756 Q 1455 756 1455 765.32 L 1455 774.63" fill="none" stroke="#000000" stroke-miterlimit="10" pointer-events="none"/><path d="M 1455 779.88 L 1451.5 772.88 L 1455 774.63 L 1458.5 772.88 Z" fill="#000000" stroke="#000000" stroke-miterlimit="10" pointer-events="none"/></g></svg>